<?xml version="1.0" encoding="utf-8"?>
<!-- Generator: Adobe Illustrator 15.0.0, SVG Export Plug-In . SVG Version: 6.00 Build 0)  -->
<!DOCTYPE svg PUBLIC "-//W3C//DTD SVG 1.1//EN" "http://www.w3.org/Graphics/SVG/1.1/DTD/svg11.dtd">
<svg version="1.1" id="Layer_1" xmlns="http://www.w3.org/2000/svg" xmlns:xlink="http://www.w3.org/1999/xlink" x="0px" y="0px"
	 width="32px" height="20px" viewBox="35 22 66 82" enable-background="new 0 0 100 100" xml:space="preserve">
<path d="M59.316,76.021v1.066c0,0.59-0.478,1.067-1.068,1.067H45.437c-0.591,0-1.067-0.479-1.067-1.067v-1.066H3v2.135
	c0,0,0,3.203,3.203,3.203h88.256c3.203,0,3.203-3.203,3.203-3.203v-2.135H59.316z"/>
<path d="M81.646,21.571H19.015c-1.771,0-3.203,1.434-3.203,3.203v1.067v43.775c0,1.769,1.433,3.202,3.203,3.202h1.067H80.58h1.066
	c1.77,0,3.203-1.435,3.203-3.202V25.841v-1.067C84.85,23.004,83.416,21.571,81.646,21.571z M80.58,68.549H20.083V25.841H80.58
	V68.549z"/>
<rect x="25.216" y="30.799" width="27.327" height="2.625"/>
<rect x="25.216" y="38.353" width="27.327" height="2.625"/>
<rect x="25.216" y="45.906" width="27.327" height="2.625"/>
<rect x="25.217" y="53.461" width="50.85" height="2.625"/>
<rect x="25.217" y="61.016" width="50.85" height="2.625"/>
<rect x="57.281" y="30.479" width="18" height="18"/>
</svg>
